<svg width="1962" height="163" viewBox="0 0 1962 163" fill="none" xmlns="http://www.w3.org/2000/svg">
<path d="M112.256 28.0371H32.8711V64.4531H102.373V91.9531H32.8711V158.34H0V0.214844H112.256V28.0371ZM137.066 0H167.681V158.34H137.066V0ZM299.698 56.0742C309.581 68.4635 314.523 83.1087 314.523 100.01C314.523 117.197 309.581 131.914 299.698 144.16C289.816 156.335 274.812 162.422 254.689 162.422C234.565 162.422 219.562 156.335 209.679 144.16C199.796 131.914 194.855 117.197 194.855 100.01C194.855 83.1087 199.796 68.4635 209.679 56.0742C219.562 43.6849 234.565 37.4902 254.689 37.4902C274.812 37.4902 289.816 43.6849 299.698 56.0742ZM254.581 63.3789C245.629 63.3789 238.719 66.5658 233.849 72.9395C229.051 79.2415 226.652 88.265 226.652 100.01C226.652 111.755 229.051 120.814 233.849 127.188C238.719 133.561 245.629 136.748 254.581 136.748C263.533 136.748 270.408 133.561 275.206 127.188C280.004 120.814 282.404 111.755 282.404 100.01C282.404 88.265 280.004 79.2415 275.206 72.9395C270.408 66.5658 263.533 63.3789 254.581 63.3789ZM399.811 69.502C387.494 69.502 379.222 73.5124 374.997 81.5332C372.634 86.0449 371.452 92.9915 371.452 102.373V158.34H340.622V41.25H369.841V61.6602C374.567 53.8542 378.685 48.5189 382.194 45.6543C387.923 40.8561 395.371 38.457 404.538 38.457C405.111 38.457 405.576 38.4928 405.934 38.5645C406.364 38.5645 407.259 38.6003 408.62 38.6719V70.0391C406.686 69.8242 404.968 69.681 403.464 69.6094C401.96 69.5378 400.742 69.502 399.811 69.502ZM435.471 53.9258C443.564 43.6133 457.457 38.457 477.151 38.457C489.97 38.457 501.357 40.9993 511.311 46.084C521.265 51.1686 526.243 60.765 526.243 74.873V128.584C526.243 132.308 526.314 136.82 526.457 142.119C526.672 146.13 527.281 148.851 528.284 150.283C529.286 151.715 530.79 152.897 532.795 153.828V158.34H499.495C498.564 155.977 497.919 153.757 497.561 151.68C497.203 149.603 496.916 147.24 496.702 144.59C492.476 149.173 487.607 153.076 482.092 156.299C475.504 160.094 468.056 161.992 459.748 161.992C449.149 161.992 440.377 158.984 433.43 152.969C426.555 146.882 423.118 138.288 423.118 127.188C423.118 112.793 428.668 102.373 439.768 95.9277C445.855 92.4186 454.807 89.9121 466.623 88.4082L477.043 87.1191C482.701 86.403 486.747 85.5078 489.182 84.4336C493.551 82.5716 495.735 79.6712 495.735 75.7324C495.735 70.9342 494.052 67.64 490.686 65.8496C487.392 63.9876 482.522 63.0566 476.077 63.0566C468.843 63.0566 463.723 64.847 460.715 68.4277C458.567 71.0775 457.135 74.6582 456.418 79.1699H426.877C427.522 68.929 430.386 60.5143 435.471 53.9258ZM458.245 136.211C461.109 138.574 464.618 139.756 468.772 139.756C475.36 139.756 481.412 137.822 486.926 133.955C492.512 130.088 495.413 123.034 495.627 112.793V101.406C493.694 102.624 491.724 103.626 489.719 104.414C487.786 105.13 485.1 105.811 481.663 106.455L474.788 107.744C468.342 108.89 463.723 110.286 460.93 111.934C456.204 114.727 453.84 119.059 453.84 124.932C453.84 130.16 455.308 133.919 458.245 136.211ZM682.533 110.752V0H715.619V110.215C715.619 123.678 713.291 134.349 708.636 142.227C700.759 155.547 686.543 162.207 665.99 162.207C645.436 162.207 631.651 156.836 624.632 146.094C617.614 135.28 614.105 120.563 614.105 101.943V98.291H645.365V101.943C645.651 114.189 646.976 122.819 649.339 127.832C651.774 132.773 656.931 135.244 664.808 135.244C672.614 135.244 677.77 132.523 680.277 127.08C681.781 123.857 682.533 118.415 682.533 110.752ZM754.823 53.9258C762.916 43.6133 776.809 38.457 796.503 38.457C809.322 38.457 820.709 40.9993 830.663 46.084C840.618 51.1686 845.595 60.765 845.595 74.873V128.584C845.595 132.308 845.667 136.82 845.81 142.119C846.025 146.13 846.633 148.851 847.636 150.283C848.639 151.715 850.142 152.897 852.148 153.828V158.34H818.847C817.916 155.977 817.271 153.757 816.913 151.68C816.555 149.603 816.269 147.24 816.054 144.59C811.829 149.173 806.959 153.076 801.445 156.299C794.856 160.094 787.408 161.992 779.101 161.992C768.502 161.992 759.729 158.984 752.782 152.969C745.907 146.882 742.47 138.288 742.47 127.188C742.47 112.793 748.02 102.373 759.12 95.9277C765.208 92.4186 774.159 89.9121 785.976 88.4082L796.396 87.1191C802.053 86.403 806.099 85.5078 808.534 84.4336C812.903 82.5716 815.087 79.6712 815.087 75.7324C815.087 70.9342 813.404 67.64 810.038 65.8496C806.744 63.9876 801.874 63.0566 795.429 63.0566C788.196 63.0566 783.075 64.847 780.068 68.4277C777.919 71.0775 776.487 74.6582 775.771 79.1699H746.23C746.874 68.929 749.739 60.5143 754.823 53.9258ZM777.597 136.211C780.461 138.574 783.971 139.756 788.124 139.756C794.713 139.756 800.764 137.822 806.279 133.955C811.864 130.088 814.765 123.034 814.98 112.793V101.406C813.046 102.624 811.077 103.626 809.071 104.414C807.138 105.13 804.452 105.811 801.015 106.455L794.14 107.744C787.695 108.89 783.075 110.286 780.282 111.934C775.556 114.727 773.193 119.059 773.193 124.932C773.193 130.16 774.661 133.919 777.597 136.211ZM932.388 63.916C922.003 63.916 914.878 68.3203 911.011 77.1289C909.005 81.7839 908.003 87.7279 908.003 94.9609V158.34H877.495V41.4648H907.036V58.5449C910.975 52.5293 914.699 48.1966 918.208 45.5469C924.51 40.8203 932.495 38.457 942.163 38.457C954.266 38.457 964.149 41.6439 971.811 48.0176C979.546 54.3197 983.413 64.8112 983.413 79.4922V158.34H952.046V87.1191C952.046 80.9603 951.222 76.2337 949.575 72.9395C946.567 66.9238 940.838 63.916 932.388 63.916ZM1116.4 123.965C1115.61 130.911 1111.99 137.965 1105.55 145.127C1095.52 156.514 1081.48 162.207 1063.44 162.207C1048.54 162.207 1035.4 157.409 1024.01 147.812C1012.63 138.216 1006.93 122.604 1006.93 100.977C1006.93 80.7096 1012.05 65.1693 1022.3 54.3555C1032.61 43.5417 1045.96 38.1348 1062.36 38.1348C1072.1 38.1348 1080.88 39.9609 1088.68 43.6133C1096.49 47.2656 1102.93 53.0306 1108.02 60.9082C1112.6 67.8548 1115.57 75.9115 1116.93 85.0781C1117.72 90.4492 1118.04 98.1836 1117.9 108.281H1037.76C1038.19 120.026 1041.88 128.262 1048.83 132.988C1053.05 135.924 1058.14 137.393 1064.08 137.393C1070.38 137.393 1075.5 135.602 1079.44 132.021C1081.59 130.088 1083.49 127.402 1085.14 123.965H1116.4ZM1086.1 88.0859C1085.6 79.9935 1083.13 73.8704 1078.69 69.7168C1074.32 65.4915 1068.88 63.3789 1062.36 63.3789C1055.27 63.3789 1049.76 65.599 1045.82 70.0391C1041.95 74.4792 1039.52 80.4948 1038.52 88.0859H1086.1ZM1267.64 110.752V0H1300.72V110.215C1300.72 123.678 1298.4 134.349 1293.74 142.227C1285.86 155.547 1271.65 162.207 1251.1 162.207C1230.54 162.207 1216.76 156.836 1209.74 146.094C1202.72 135.28 1199.21 120.563 1199.21 101.943V98.291H1230.47V101.943C1230.76 114.189 1232.08 122.819 1234.44 127.832C1236.88 132.773 1242.04 135.244 1249.91 135.244C1257.72 135.244 1262.88 132.523 1265.38 127.08C1266.89 123.857 1267.64 118.415 1267.64 110.752ZM1435.75 123.965C1434.96 130.911 1431.34 137.965 1424.9 145.127C1414.87 156.514 1400.84 162.207 1382.79 162.207C1367.89 162.207 1354.75 157.409 1343.37 147.812C1331.98 138.216 1326.29 122.604 1326.29 100.977C1326.29 80.7096 1331.41 65.1693 1341.65 54.3555C1351.96 43.5417 1365.32 38.1348 1381.72 38.1348C1391.46 38.1348 1400.23 39.9609 1408.03 43.6133C1415.84 47.2656 1422.29 53.0306 1427.37 60.9082C1431.95 67.8548 1434.93 75.9115 1436.29 85.0781C1437.07 90.4492 1437.4 98.1836 1437.25 108.281H1357.12C1357.55 120.026 1361.23 128.262 1368.18 132.988C1372.41 135.924 1377.49 137.393 1383.43 137.393C1389.74 137.393 1394.86 135.602 1398.8 132.021C1400.94 130.088 1402.84 127.402 1404.49 123.965H1435.75ZM1405.46 88.0859C1404.95 79.9935 1402.48 73.8704 1398.04 69.7168C1393.68 65.4915 1388.23 63.3789 1381.72 63.3789C1374.63 63.3789 1369.11 65.599 1365.17 70.0391C1361.31 74.4792 1358.87 80.4948 1357.87 88.0859H1405.46ZM1517.49 63.916C1507.11 63.916 1499.98 68.3203 1496.12 77.1289C1494.11 81.7839 1493.11 87.7279 1493.11 94.9609V158.34H1462.6V41.4648H1492.14V58.5449C1496.08 52.5293 1499.8 48.1966 1503.31 45.5469C1509.62 40.8203 1517.6 38.457 1527.27 38.457C1539.37 38.457 1549.25 41.6439 1556.92 48.0176C1564.65 54.3197 1568.52 64.8112 1568.52 79.4922V158.34H1537.15V87.1191C1537.15 80.9603 1536.33 76.2337 1534.68 72.9395C1531.67 66.9238 1525.94 63.916 1517.49 63.916ZM1681.95 46.6211C1691.12 52.4935 1696.38 62.5911 1697.74 76.9141H1667.13C1666.7 72.9753 1665.59 69.86 1663.8 67.5684C1660.43 63.4147 1654.7 61.3379 1646.61 61.3379C1639.95 61.3379 1635.19 62.3763 1632.32 64.4531C1629.53 66.5299 1628.13 68.9648 1628.13 71.7578C1628.13 75.2669 1629.64 77.8092 1632.64 79.3848C1635.65 81.0319 1646.29 83.8607 1664.55 87.8711C1676.72 90.7357 1685.85 95.0684 1691.94 100.869C1697.96 106.742 1700.97 114.082 1700.97 122.891C1700.97 134.492 1696.63 143.981 1687.97 151.357C1679.37 158.662 1666.05 162.314 1648.01 162.314C1629.6 162.314 1615.99 158.447 1607.19 150.713C1598.45 142.907 1594.08 132.988 1594.08 120.957H1625.13C1625.77 126.4 1627.17 130.267 1629.31 132.559C1633.11 136.641 1640.13 138.682 1650.37 138.682C1656.39 138.682 1661.15 137.786 1664.66 135.996C1668.24 134.206 1670.03 131.52 1670.03 127.939C1670.03 124.502 1668.6 121.888 1665.73 120.098C1662.87 118.307 1652.23 115.228 1633.83 110.859C1620.58 107.565 1611.23 103.447 1605.79 98.5059C1600.35 93.6361 1597.63 86.6178 1597.63 77.4512C1597.63 66.6374 1601.85 57.3633 1610.3 49.6289C1618.82 41.8229 1630.78 37.9199 1646.18 37.9199C1660.79 37.9199 1672.71 40.8203 1681.95 46.6211ZM1828.36 123.965C1827.58 130.911 1823.96 137.965 1817.51 145.127C1807.49 156.514 1793.45 162.207 1775.4 162.207C1760.51 162.207 1747.37 157.409 1735.98 147.812C1724.59 138.216 1718.9 122.604 1718.9 100.977C1718.9 80.7096 1724.02 65.1693 1734.26 54.3555C1744.57 43.5417 1757.93 38.1348 1774.33 38.1348C1784.07 38.1348 1792.84 39.9609 1800.65 43.6133C1808.45 47.2656 1814.9 53.0306 1819.98 60.9082C1824.57 67.8548 1827.54 75.9115 1828.9 85.0781C1829.69 90.4492 1830.01 98.1836 1829.87 108.281H1749.73C1750.16 120.026 1753.85 128.262 1760.79 132.988C1765.02 135.924 1770.1 137.393 1776.05 137.393C1782.35 137.393 1787.47 135.602 1791.41 132.021C1793.56 130.088 1795.46 127.402 1797.1 123.965H1828.36ZM1798.07 88.0859C1797.57 79.9935 1795.1 73.8704 1790.66 69.7168C1786.29 65.4915 1780.85 63.3789 1774.33 63.3789C1767.24 63.3789 1761.73 65.599 1757.79 70.0391C1753.92 74.4792 1751.49 80.4948 1750.48 88.0859H1798.07ZM1910.11 63.916C1899.72 63.916 1892.6 68.3203 1888.73 77.1289C1886.72 81.7839 1885.72 87.7279 1885.72 94.9609V158.34H1855.21V41.4648H1884.76V58.5449C1888.69 52.5293 1892.42 48.1966 1895.93 45.5469C1902.23 40.8203 1910.21 38.457 1919.88 38.457C1931.99 38.457 1941.87 41.6439 1949.53 48.0176C1957.27 54.3197 1961.13 64.8112 1961.13 79.4922V158.34H1929.77V87.1191C1929.77 80.9603 1928.94 76.2337 1927.29 72.9395C1924.29 66.9238 1918.56 63.916 1910.11 63.916Z" fill="black"/>
</svg>
