<svg width="1834" height="480" viewBox="0 0 1834 480" fill="none" xmlns="http://www.w3.org/2000/svg">
<path d="M430.28 53.8906C376.114 51.3906 325.28 31.9462 268.614 23.335C232.225 17.7795 195.28 17.5017 158.891 28.8906C113.891 43.0573 73.3359 74.7239 51.9471 119.446C43.0582 138.335 38.0582 159.724 38.8915 180.28C39.447 197.78 47.7804 219.168 66.6693 227.78C78.8915 233.613 92.7804 233.891 108.614 230.835C134.725 224.168 159.169 204.168 169.447 181.391C170.003 180.557 171.114 180.835 170.836 181.946C160.28 205.557 135.28 225.835 108.336 232.78C94.4471 236.113 79.4471 236.391 65.2804 230.835C45.0026 223.057 31.6693 204.446 27.5026 182.502C22.7804 158.891 28.6137 134.168 40.0026 113.335C63.3359 70.5573 108.336 40.8351 158.336 26.6684C193.614 16.6684 230.836 15.5573 268.891 20.8351C292.225 24.1684 315.28 29.724 338.058 34.1684C367.78 40.0017 397.225 45.5573 430.558 46.6684C466.114 48.0573 519.725 42.7795 541.669 7.50173C542.225 6.39061 543.336 7.22394 542.78 8.33506C530.558 28.8906 505.558 42.5017 481.947 49.4462C465.558 54.4462 447.503 54.724 430.28 53.8906ZM345.003 61.1128C345.836 61.3906 345.558 62.5017 344.725 62.2239C315.28 52.5017 290.003 91.9462 275.003 113.891C262.78 131.391 252.78 150.28 240.836 168.057C252.78 168.057 265.28 170.835 277.503 168.891C283.058 159.724 290.003 149.446 298.891 142.78C300.836 141.391 308.891 136.113 312.225 138.613C316.114 141.668 310.003 150.557 301.669 157.78C297.78 161.113 293.892 163.613 290.558 165.557C280.836 184.724 259.447 215.28 233.614 214.168C232.503 214.168 232.78 213.057 233.614 213.057C256.669 212.502 265.003 189.168 276.391 170.835C264.169 172.502 252.225 170.002 240.003 170.002C213.614 209.724 189.169 251.391 155.28 288.057C135.28 310.002 111.391 330.835 82.7804 342.78C70.5582 348.057 57.7804 351.113 44.4471 351.113C29.447 351.113 9.72483 343.613 3.61372 327.502C0.00260415 317.78 1.39149 306.668 7.22483 296.391C7.78038 295.557 9.16927 295.835 8.61372 296.946C3.05816 307.78 1.66927 317.78 5.28038 326.668C11.3915 341.668 28.3359 348.613 44.7248 348.613C57.2248 348.613 69.1693 343.891 80.8359 338.891C106.114 325.835 126.947 306.391 148.058 281.391C174.725 249.724 195.28 213.891 221.391 171.113C206.114 173.891 195.003 179.724 188.614 190.002C188.058 191.113 186.669 190.557 187.503 189.168C194.447 178.335 205.836 171.668 222.78 169.168C235.558 149.446 249.169 130.28 263.336 111.113C277.503 92.224 315.28 50.5573 345.003 61.1128ZM311.114 139.724C309.447 138.613 304.169 143.057 301.947 146.113C298.058 151.668 295.836 156.946 292.225 162.502C294.725 160.835 297.503 158.891 300.28 156.391C310.836 147.224 313.336 141.113 311.114 139.724ZM257.707 332.224C264.929 332.78 276.595 324.168 287.984 311.946C299.095 300.28 310.207 285.557 320.207 273.335C320.762 272.502 322.151 273.057 321.318 274.168C311.04 286.946 299.929 301.391 289.095 312.78C277.429 325.28 266.318 333.891 257.151 333.891C244.373 333.891 244.651 317.502 247.707 308.613C253.262 292.224 262.429 278.057 271.595 263.891C332.707 171.946 390.762 84.1684 387.984 88.3351C395.207 89.4462 404.095 87.224 409.095 82.7795C403.54 89.724 392.151 106.391 385.484 116.668L285.484 268.057C275.762 282.78 265.762 296.668 257.707 312.502C255.207 317.502 247.151 331.391 257.707 332.224ZM318.505 334.168C309.339 334.168 303.505 327.224 303.505 317.224C303.505 305.835 306.839 293.891 314.616 281.391C325.727 263.613 341.283 249.168 357.672 241.391C366.283 237.224 379.616 233.891 386.283 240.557C391.283 245.835 389.616 256.946 387.394 263.613C390.172 265.835 390.172 271.391 386.839 276.113C384.616 279.446 381.561 281.668 378.783 282.224C377.95 285.28 379.616 288.057 382.116 288.891C385.172 289.724 389.339 289.446 394.061 287.224C399.061 284.724 404.061 280.835 410.45 273.335C411.005 272.78 412.116 273.335 411.561 274.168C405.727 281.113 399.894 285.835 394.061 288.613C389.616 290.557 386.005 291.113 381.839 290.28C379.339 289.724 376.839 288.057 376.005 286.668C371.561 293.891 366.005 300.835 360.172 307.224C347.672 320.557 331.005 333.891 318.505 334.168ZM318.227 332.78C329.616 332.502 346.005 320.557 359.061 306.113C365.172 299.724 370.172 292.78 375.172 285.557C372.116 280.28 372.394 274.168 375.45 269.446C378.227 265.002 382.95 262.224 386.005 263.057C388.227 257.502 389.616 246.668 385.172 241.668C378.783 235.002 366.561 242.224 361.005 246.391C349.894 254.446 336.839 271.946 327.672 286.391C323.227 293.335 315.45 308.613 312.672 318.057C311.005 323.891 310.45 333.057 318.227 332.78ZM464.671 274.724C465.226 270.835 466.615 265.28 468.559 261.391C463.282 264.446 439.671 284.446 426.337 303.613C421.893 310.002 416.615 318.335 406.337 333.057C399.115 331.946 390.226 334.168 385.226 338.613C389.671 333.057 397.726 321.391 404.115 311.668C414.671 294.724 425.226 280.835 434.948 265.28C438.837 258.613 451.615 240.835 447.726 239.724C441.337 237.78 420.504 263.057 411.615 274.168C411.059 275.002 409.671 274.446 410.504 273.335C419.948 261.391 438.559 238.335 448.004 237.78C455.504 237.502 457.726 245.002 454.393 253.613C449.671 266.113 443.837 276.668 434.115 291.391C446.893 276.391 461.337 265.002 469.393 259.168C473.559 248.613 480.226 238.613 488.837 231.668C492.448 228.613 496.615 227.502 498.837 228.891C499.393 229.168 500.782 230.28 500.226 232.78C498.559 242.224 483.837 251.668 474.115 257.502C470.504 261.946 466.893 270.557 466.337 274.724C464.393 289.446 473.837 294.724 486.893 288.335C492.726 285.557 498.837 280.002 504.671 273.335C505.504 272.224 506.615 273.335 505.782 274.168C499.948 281.113 493.559 286.391 487.448 289.446C473.837 296.391 462.726 290.28 464.671 274.724ZM553.353 331.668C558.353 330.28 566.409 324.168 573.631 317.224C585.853 305.557 599.187 288.891 611.687 273.335C612.242 272.502 613.353 273.335 612.798 274.168C600.298 290.002 586.964 306.668 574.742 318.335C567.52 325.28 560.02 330.835 553.909 333.057C546.409 335.835 538.631 331.391 538.631 322.224C538.631 310.002 546.131 297.224 552.242 287.224C541.964 301.668 526.131 320.557 510.853 330.002C503.076 334.724 490.298 336.946 487.798 324.724C485.576 314.724 490.298 299.724 493.076 293.335C501.964 271.946 522.52 251.946 539.187 243.613C546.687 240.002 563.909 232.224 570.298 242.224C574.464 248.613 571.131 256.668 568.076 262.78C573.353 255.002 578.631 246.946 584.187 239.446C591.409 240.557 600.02 238.335 605.02 233.891C600.853 239.168 593.353 249.446 587.52 258.613C576.964 275.002 564.464 291.668 554.464 309.446C552.52 312.78 540.298 335.557 553.353 331.668ZM496.131 330.002C498.353 333.613 505.298 331.946 510.576 328.613C524.742 320.002 546.964 295.002 563.631 267.224C570.298 256.391 572.242 247.78 569.187 243.057C562.52 233.613 547.242 243.613 540.853 249.446C527.242 261.391 516.409 277.502 507.798 293.613C502.52 303.613 492.798 324.724 496.131 330.002ZM1054.51 16.9462C1043.12 23.6128 1027.85 26.9462 1014.79 30.0017C983.957 54.1684 960.068 85.2795 936.734 116.668C909.234 153.613 883.401 193.057 857.845 231.391C834.512 266.113 811.179 300.835 787.012 334.446C810.068 332.502 828.123 338.891 829.512 350.835C829.512 351.668 828.957 352.224 828.401 351.113C825.068 335.002 797.568 334.446 785.623 336.113C771.457 356.391 756.457 375.835 741.734 395.28C720.623 422.502 697.012 451.946 665.623 469.446C656.179 474.724 638.123 480.002 631.734 468.891C623.123 455.002 640.345 428.057 651.734 414.168C682.845 376.946 725.068 347.78 774.512 336.113C798.401 299.168 821.457 260.835 845.345 223.335C870.345 183.891 896.734 144.446 926.734 108.613C949.79 80.8351 974.234 54.4462 1002.57 32.2239C992.29 34.1684 982.012 35.5573 971.179 37.2239C886.457 49.724 798.401 71.3906 742.29 147.502C724.512 171.391 704.79 216.113 720.901 245.835C725.623 254.168 737.29 261.391 746.734 263.057C765.345 266.391 787.012 258.891 805.345 242.224C805.901 241.668 807.012 242.224 806.179 243.057C787.29 260.557 764.79 268.891 745.345 265.002C735.068 263.057 724.234 256.668 717.568 248.057C694.512 216.946 710.345 169.446 732.012 140.28C760.345 101.668 802.845 78.3351 848.679 62.2239C898.957 44.724 950.901 39.1684 1005.62 30.0017C1018.12 20.8351 1031.46 11.3906 1045.9 5.27952C1053.12 2.22395 1063.12 0.00173664 1065.07 3.89061C1067.29 8.33506 1059.23 14.1684 1054.51 16.9462ZM1053.68 15.5573C1059.23 12.7795 1063.96 6.94618 1062.57 5.27952C1061.18 3.33507 1052.01 6.6684 1047.57 8.61285C1036.46 13.3351 1027.29 20.8351 1017.57 27.7795C1028.96 25.0017 1042.01 21.9462 1053.68 15.5573ZM773.123 338.335C726.734 348.891 684.234 378.057 653.123 415.557C643.679 426.946 624.79 455.002 633.679 468.335C638.957 477.502 655.623 472.502 664.234 467.78C693.679 451.113 715.068 422.78 737.29 391.946C749.512 375.002 761.457 356.946 773.123 338.335ZM918.099 331.668C923.099 330.28 931.155 324.168 938.377 317.224C950.599 305.557 963.933 288.891 976.433 273.335C976.988 272.502 978.099 273.335 977.544 274.168C965.044 290.002 951.711 306.668 939.488 318.335C932.266 325.28 924.766 330.835 918.655 333.057C911.155 335.835 903.377 331.391 903.377 322.224C903.377 310.002 910.877 297.224 916.988 287.224C906.711 301.668 890.877 320.557 875.599 330.002C867.822 334.724 855.044 336.946 852.544 324.724C850.322 314.724 855.044 299.724 857.822 293.335C866.711 271.946 887.266 251.946 903.933 243.613C911.433 240.002 928.655 232.224 935.044 242.224C939.211 248.613 935.877 256.668 932.822 262.78C938.099 255.002 943.377 246.946 948.933 239.446C956.155 240.557 964.766 238.335 969.766 233.891C965.599 239.168 958.099 249.446 952.266 258.613C941.711 275.002 929.211 291.668 919.211 309.446C917.266 312.78 905.044 335.557 918.099 331.668ZM860.877 330.002C863.099 333.613 870.044 331.946 875.322 328.613C889.488 320.002 911.711 295.002 928.377 267.224C935.044 256.391 936.988 247.78 933.933 243.057C927.266 233.613 911.988 243.613 905.599 249.446C891.988 261.391 881.155 277.502 872.544 293.613C867.266 303.613 857.544 324.724 860.877 330.002ZM975.311 299.168L953.922 331.946C946.7 331.113 937.533 333.057 932.533 337.502C936.7 332.502 943.644 322.502 949.755 313.613C963.089 293.891 976.144 273.335 989.477 253.335L998.644 239.446C1005.87 240.557 1014.76 238.335 1020.03 233.891C1011.42 244.168 990.589 276.391 990.589 276.391L987.533 281.113C1007.81 256.946 1030.59 237.502 1042.26 237.78C1051.14 238.057 1056.14 243.891 1055.03 252.224C1053.09 266.946 1038.37 283.335 1028.92 296.946C1024.76 303.057 1016.7 314.168 1013.37 320.557C1010.03 326.946 1011.42 331.668 1014.2 332.224C1017.53 333.057 1023.37 329.724 1027.81 326.391C1041.7 316.113 1058.92 295.28 1075.87 273.335C1076.7 272.224 1077.81 273.057 1076.98 274.168C1060.03 296.113 1042.81 317.224 1028.64 327.502C1023.92 330.835 1018.92 333.891 1013.92 333.891C1004.2 333.891 1002.53 321.946 1004.48 315.002C1006.98 305.835 1012.53 296.946 1017.81 289.168C1026.7 276.391 1036.14 263.613 1043.92 250.002C1046.14 246.113 1047.53 239.446 1041.42 239.446C1028.92 239.446 1000.03 265.002 975.311 299.168ZM1070.2 311.946C1068.25 318.057 1066.03 331.391 1075.75 331.946C1083.53 332.502 1094.36 328.057 1106.59 319.446C1121.31 308.891 1138.25 292.78 1153.81 273.335C1154.36 272.78 1155.48 273.335 1154.92 274.168C1141.03 292.224 1122.98 309.446 1107.42 320.557C1099.64 325.835 1086.86 333.891 1076.31 333.891C1060.2 333.891 1057.98 319.724 1058.81 309.168C1059.92 297.78 1065.48 288.613 1071.59 279.446C1076.86 271.668 1083.53 264.446 1091.31 258.057C1102.7 248.613 1118.53 238.335 1131.31 236.946C1141.31 235.835 1145.48 243.891 1140.2 252.78C1132.7 265.557 1101.59 283.613 1082.98 286.113C1076.31 295.28 1072.98 303.335 1070.2 311.946ZM1139.09 251.946C1143.25 244.724 1141.03 237.502 1131.59 238.891C1117.7 241.113 1093.81 270.28 1084.09 284.446C1100.75 282.502 1131.86 264.446 1139.09 251.946ZM1596.5 16.9462C1585.12 23.6128 1569.84 26.9462 1556.78 30.0017C1525.95 54.1684 1502.06 85.2795 1478.73 116.668C1451.23 153.613 1425.39 193.057 1399.84 231.391C1376.5 266.113 1353.17 300.835 1329 334.446C1352.06 332.502 1370.12 338.891 1371.5 350.835C1371.5 351.668 1370.95 352.224 1370.39 351.113C1367.06 335.002 1339.56 334.446 1327.62 336.113C1313.45 356.391 1298.45 375.835 1283.73 395.28C1262.62 422.502 1239 451.946 1207.62 469.446C1198.17 474.724 1180.12 480.002 1173.73 468.891C1165.12 455.002 1182.34 428.057 1193.73 414.168C1224.84 376.946 1267.06 347.78 1316.5 336.113C1340.39 299.168 1363.45 260.835 1387.34 223.335C1412.34 183.891 1438.73 144.446 1468.73 108.613C1491.78 80.8351 1516.23 54.4462 1544.56 32.2239C1534.28 34.1684 1524 35.5573 1513.17 37.2239C1428.45 49.724 1340.39 71.3906 1284.28 147.502C1266.5 171.391 1246.78 216.113 1262.89 245.835C1267.62 254.168 1279.28 261.391 1288.73 263.057C1307.34 266.391 1329 258.891 1347.34 242.224C1347.89 241.668 1349 242.224 1348.17 243.057C1329.28 260.557 1306.78 268.891 1287.34 265.002C1277.06 263.057 1266.23 256.668 1259.56 248.057C1236.5 216.946 1252.34 169.446 1274 140.28C1302.34 101.668 1344.84 78.3351 1390.67 62.2239C1440.95 44.724 1492.89 39.1684 1547.62 30.0017C1560.12 20.8351 1573.45 11.3906 1587.89 5.27952C1595.12 2.22395 1605.12 0.00173664 1607.06 3.89061C1609.28 8.33506 1601.23 14.1684 1596.5 16.9462ZM1595.67 15.5573C1601.23 12.7795 1605.95 6.94618 1604.56 5.27952C1603.17 3.33507 1594 6.6684 1589.56 8.61285C1578.45 13.3351 1569.28 20.8351 1559.56 27.7795C1570.95 25.0017 1584 21.9462 1595.67 15.5573ZM1315.12 338.335C1268.73 348.891 1226.23 378.057 1195.12 415.557C1185.67 426.946 1166.78 455.002 1175.67 468.335C1180.95 477.502 1197.62 472.502 1206.23 467.78C1235.67 451.113 1257.06 422.78 1279.28 391.946C1291.5 375.002 1303.45 356.946 1315.12 338.335ZM1405.65 311.946C1403.7 318.057 1401.48 331.391 1411.2 331.946C1418.98 332.502 1429.81 328.057 1442.04 319.446C1456.76 308.891 1473.7 292.78 1489.26 273.335C1489.81 272.78 1490.92 273.335 1490.37 274.168C1476.48 292.224 1458.42 309.446 1442.87 320.557C1435.09 325.835 1422.31 333.891 1411.76 333.891C1395.65 333.891 1393.42 319.724 1394.26 309.168C1395.37 297.78 1400.92 288.613 1407.04 279.446C1412.31 271.668 1418.98 264.446 1426.76 258.057C1438.15 248.613 1453.98 238.335 1466.76 236.946C1476.76 235.835 1480.92 243.891 1475.65 252.78C1468.15 265.557 1437.04 283.613 1418.42 286.113C1411.76 295.28 1408.42 303.335 1405.65 311.946ZM1474.54 251.946C1478.7 244.724 1476.48 237.502 1467.04 238.891C1453.15 241.113 1429.26 270.28 1419.54 284.446C1436.2 282.502 1467.31 264.446 1474.54 251.946ZM1488.01 299.168L1466.62 331.946C1459.39 331.113 1450.23 333.057 1445.23 337.502C1449.39 332.502 1456.34 322.502 1462.45 313.613C1475.78 293.891 1488.84 273.335 1502.17 253.335L1511.34 239.446C1518.56 240.557 1527.45 238.335 1532.73 233.891C1524.12 244.168 1503.28 276.391 1503.28 276.391L1500.23 281.113C1520.51 256.946 1543.28 237.502 1554.95 237.78C1563.84 238.057 1568.84 243.891 1567.73 252.224C1565.78 266.946 1551.06 283.335 1541.62 296.946C1537.45 303.057 1529.39 314.168 1526.06 320.557C1522.73 326.946 1524.12 331.668 1526.89 332.224C1530.23 333.057 1536.06 329.724 1540.51 326.391C1554.39 316.113 1571.62 295.28 1588.56 273.335C1589.39 272.224 1590.51 273.057 1589.67 274.168C1572.73 296.113 1555.51 317.224 1541.34 327.502C1536.62 330.835 1531.62 333.891 1526.62 333.891C1516.89 333.891 1515.23 321.946 1517.17 315.002C1519.67 305.835 1525.23 296.946 1530.51 289.168C1539.39 276.391 1548.84 263.613 1556.62 250.002C1558.84 246.113 1560.23 239.446 1554.12 239.446C1541.62 239.446 1512.73 265.002 1488.01 299.168ZM1654.56 273.335C1655.39 272.502 1656.23 273.613 1655.67 274.168C1640.39 293.335 1618.73 315.835 1599.84 327.502C1591.78 332.502 1584 334.724 1575.39 334.446C1567.89 334.446 1561.23 331.391 1559 323.335C1556.78 315.002 1560.39 301.391 1568.45 293.335C1571.23 290.557 1576.5 287.224 1579.56 289.724C1582.06 291.668 1581.23 296.113 1577.62 300.002C1574.28 303.891 1569.56 305.557 1567.06 303.335C1564.28 305.002 1562.06 307.502 1560.95 310.835C1559.56 315.28 1559.56 319.446 1560.39 323.057C1562.06 330.28 1568.45 333.057 1575.12 332.502C1585.95 331.391 1594.84 322.224 1599.56 313.613C1606.23 300.557 1612.89 285.835 1614.84 271.113C1615.95 262.502 1615.12 253.335 1614.84 244.724C1607.34 253.335 1595.67 267.78 1589.84 274.168C1589.28 274.724 1588.17 273.891 1588.73 273.335C1594.84 266.391 1607.34 251.391 1614.84 242.502C1614.84 235.835 1615.95 229.446 1619.84 223.891C1624 217.78 1628.73 215.002 1631.5 215.557C1637.34 216.946 1630.67 226.113 1628.45 228.891C1625.95 232.224 1620.39 237.78 1616.23 243.057C1615.67 252.502 1619 261.668 1621.5 270.557C1626.23 287.78 1621.5 306.946 1607.62 320.002C1624.28 308.057 1640.67 290.28 1654.56 273.335ZM1648.81 311.946C1646.87 318.057 1644.64 331.391 1654.37 331.946C1662.14 332.502 1672.98 328.057 1685.2 319.446C1699.92 308.891 1716.87 292.78 1732.42 273.335C1732.98 272.78 1734.09 273.335 1733.53 274.168C1719.64 292.224 1701.59 309.446 1686.03 320.557C1678.26 325.835 1665.48 333.891 1654.92 333.891C1638.81 333.891 1636.59 319.724 1637.42 309.168C1638.53 297.78 1644.09 288.613 1650.2 279.446C1655.48 271.668 1662.14 264.446 1669.92 258.057C1681.31 248.613 1697.14 238.335 1709.92 236.946C1719.92 235.835 1724.09 243.891 1718.81 252.78C1711.31 265.557 1680.2 283.613 1661.59 286.113C1654.92 295.28 1651.59 303.335 1648.81 311.946ZM1717.7 251.946C1721.87 244.724 1719.64 237.502 1710.2 238.891C1696.31 241.113 1672.42 270.28 1662.7 284.446C1679.37 282.502 1710.48 264.446 1717.7 251.946ZM1731.17 299.168L1709.78 331.946C1702.56 331.113 1693.39 333.057 1688.39 337.502C1692.56 332.502 1699.5 322.502 1705.61 313.613C1718.95 293.891 1732 273.335 1745.34 253.335L1754.5 239.446C1761.73 240.557 1770.61 238.335 1775.89 233.891C1767.28 244.168 1746.45 276.391 1746.45 276.391L1743.39 281.113C1763.67 256.946 1786.45 237.502 1798.11 237.78C1807 238.057 1812 243.891 1810.89 252.224C1808.95 266.946 1794.23 283.335 1784.78 296.946C1780.61 303.057 1772.56 314.168 1769.23 320.557C1765.89 326.946 1767.28 331.668 1770.06 332.224C1773.39 333.057 1779.23 329.724 1783.67 326.391C1797.56 316.113 1814.78 295.28 1831.73 273.335C1832.56 272.224 1833.67 273.057 1832.84 274.168C1815.89 296.113 1798.67 317.224 1784.5 327.502C1779.78 330.835 1774.78 333.891 1769.78 333.891C1760.06 333.891 1758.39 321.946 1760.34 315.002C1762.84 305.835 1768.39 296.946 1773.67 289.168C1782.56 276.391 1792 263.613 1799.78 250.002C1802 246.113 1803.39 239.446 1797.28 239.446C1784.78 239.446 1755.89 265.002 1731.17 299.168Z" fill="black"/>
</svg>
